<?xml version="1.0"?>
<svg width="199.99999999999997" height="199.99999999999997" xmlns="http://www.w3.org/2000/svg" xmlns:svg="http://www.w3.org/2000/svg" version="1.1">
 <g class="layer">
  <title>Layer 1</title>
  <path d="m163.65,22.31c20.82,17.15 32.99,41.07 36.35,67.69c2.46,26.87 -5.45,52.75 -22.36,73.68c-17.93,21.36 -42.43,34.01 -70.17,36.55c-27.67,1.71 -53.53,-7.2 -74.38,-25.35c-20.12,-18.19 -31.8,-42.85 -33.48,-69.91c-1.01,-28.34 8.92,-52.77 27.39,-73.97c0.54,-0.63 1.08,-1.25 1.63,-1.9c35.12,-37.76 96.09,-37.73 135.02,-6.79zm-90.65,-15.31c-0.95,0.3 -0.95,0.3 -1.91,0.6c-23.35,7.52 -42.94,22.99 -55.09,44.4c-0.53,0.91 -1.05,1.82 -1.59,2.76c-10.93,20.33 -14.39,46.64 -8.45,69.02c0.34,1.06 0.69,2.12 1.04,3.22c0.3,0.94 0.3,0.94 0.6,1.91c7.63,23.69 24.04,44.37 45.96,56.46c4.27,2.02 8.59,3.78 13,5.44c0.77,0.29 1.53,0.58 2.32,0.88c10.2,3.66 20.14,4.68 30.93,4.62c1.15,-0.01 2.29,-0.01 3.48,-0.02c8.3,-0.12 15.76,-0.73 23.71,-3.29c0.63,-0.2 1.26,-0.4 1.91,-0.61c23.69,-7.62 44.38,-24.03 56.46,-45.96c2.02,-4.26 3.78,-8.58 5.44,-13c0.29,-0.76 0.58,-1.53 0.88,-2.32c3.66,-10.2 4.68,-20.14 4.62,-30.93c-0.01,-1.72 -0.01,-1.72 -0.02,-3.47c-0.12,-8.31 -0.73,-15.76 -3.29,-23.71c-0.2,-0.63 -0.4,-1.26 -0.6,-1.91c-7.94,-24.64 -24.92,-44.97 -47.66,-57.31c-14.23,-7.03 -28.7,-10.18 -44.55,-10.1c-1.15,0.01 -2.3,0.02 -3.48,0.02c-8.31,0.12 -15.76,0.74 -23.71,3.3z" fill="#000000" id="svg_1"/>
  <path d="m94,58.94c6.96,-0.08 13.91,-0.13 20.87,-0.16c2.36,-0.02 4.73,-0.04 7.09,-0.07c3.41,-0.03 6.82,-0.05 10.22,-0.06c1.05,-0.02 2.1,-0.03 3.18,-0.05c9.08,0 16.46,1.49 23.2,7.79c6,6.45 5.81,13.45 5.64,21.85c-0.45,8.41 -3.2,12.28 -9.36,17.94c-8.99,5.58 -18.76,5.13 -28.96,4.95c-1.45,-0.02 -2.9,-0.03 -4.35,-0.04c-3.51,-0.03 -7.02,-0.09 -10.53,-0.15c0,8.91 0,17.82 0,27c-1.65,0 -3.3,0 -5,0c0,-10.23 0,-20.46 0,-31c2.42,-0.04 4.84,-0.07 7.34,-0.11c2.37,-0.05 4.75,-0.1 7.12,-0.15c1.64,-0.04 3.27,-0.06 4.91,-0.09c14.74,0.04 14.74,0.04 28.01,-5.84c4.57,-4.9 5.77,-9.61 6.06,-16.25c-0.19,-5.47 -1.2,-10.07 -4.44,-14.56c-4.99,-4.27 -9.97,-6.07 -16.49,-6.21c-1.32,-0.03 -1.32,-0.03 -2.67,-0.06c-0.94,-0.01 -1.89,-0.03 -2.86,-0.05c-0.97,-0.02 -1.94,-0.04 -2.94,-0.06c-3.1,-0.06 -6.19,-0.12 -9.29,-0.18c-2.1,-0.05 -4.2,-0.09 -6.3,-0.13c-5.15,-0.11 -10.3,-0.21 -15.45,-0.31c0.01,0.88 0.01,0.88 0.02,1.78c0.07,6.16 0.11,12.33 0.14,18.5c0.02,2.29 0.04,4.59 0.07,6.88c0.03,3.32 0.05,6.63 0.06,9.95c0.02,1.01 0.03,2.02 0.05,3.06c0,10.73 -1.57,20.95 -9.34,28.83c-6.96,6.57 -14.5,9.08 -24,9.38c-10.96,-0.34 -18.56,-3.94 -26.25,-11.63c-6.37,-10.01 -6.91,-20.12 -6.81,-31.69c0,-1.06 0.01,-2.13 0.01,-3.23c0.01,-2.61 0.03,-5.22 0.05,-7.83c1.94,-0.56 1.94,-0.56 4,-1c1.82,1.82 1.15,4.68 1.18,7.13c0.02,1.26 0.04,2.52 0.07,3.83c0.04,2.66 0.07,5.32 0.09,7.99c0.21,9.39 1.71,15.58 6.85,23.36c6.17,5.9 14.15,8.04 22.56,7.91c7.3,-0.71 14.73,-3.2 19.65,-8.82c7.29,-9.59 6.76,-21.11 6.7,-32.66c0,-1.03 -0.01,-2.06 -0.01,-3.12c0,-3.25 -0.01,-6.5 -0.03,-9.74c0,-2.22 -0.01,-4.44 -0.01,-6.66c-0.01,-5.41 -0.03,-10.81 -0.05,-16.22z" fill="#000000" id="svg_2"/>
  <path d="m148,119c3.26,0.31 4.7,0.7 7.06,3.04c0.64,0.85 1.28,1.71 1.94,2.59c0.68,0.89 1.36,1.79 2.06,2.72c0.64,0.87 1.28,1.75 1.94,2.65c0.54,0.72 1.07,1.44 1.63,2.18c3.37,4.62 3.37,4.62 3.37,5.82c-2.18,0.39 -2.18,0.39 -5,0c-1.96,-2.06 -4.69,-5.66 -5.12,-6.25c-0.43,-0.59 -0.11,-0.13 -1.31,-1.78c-1.2,-1.65 -2.39,-3.31 -3.57,-4.97c-0.6,-0.76 -1.19,-1.52 -1.8,-2.3c-1.2,-1.7 -1.2,-1.7 -1.2,-3.7z" fill="#000000" id="svg_3"/>
  <rect fill="#000000" height="6" id="svg_5" width="5.2" x="33" y="86"/>
  <rect fill="#000000" height="20" id="svg_6" transform="matrix(1 0 0 1 0 0)" width="5.2" x="33.09" y="59"/>
 </g>
</svg>